<?xml version="1.0" standalone="no"?>
<!DOCTYPE svg PUBLIC "-//W3C//DTD SVG 20010904//EN"
 "http://www.w3.org/TR/2001/REC-SVG-20010904/DTD/svg10.dtd">
<svg version="1.0" xmlns="http://www.w3.org/2000/svg"
 width="2364.000000pt" height="1354.000000pt" viewBox="0 0 2364.000000 1354.000000"
 preserveAspectRatio="xMidYMid meet">

<g transform="translate(0.000000,1354.000000) scale(0.100000,-0.100000)"
fill="#000000" stroke="none">
<path d="M12310 6770 l0 -6760 1605 0 1605 0 0 6760 0 6760 -1605 0 -1605 0 0
-6760z"/>
<path d="M5255 12333 c-22 -1 -98 -8 -170 -13 -900 -72 -1831 -401 -2603 -918
-807 -542 -1453 -1275 -1888 -2143 -779 -1557 -779 -3421 0 -4978 720 -1436
2028 -2499 3570 -2901 492 -128 873 -175 1416 -175 362 0 487 8 770 46 1580
217 3004 1116 3883 2451 475 722 771 1521 876 2368 31 249 41 419 41 700 0
281 -10 451 -41 700 -200 1609 -1101 3057 -2463 3955 -799 526 -1722 837
-2686 905 -131 9 -607 11 -705 3z m604 -3897 c368 -67 684 -234 938 -499 348
-362 516 -850 463 -1345 -77 -717 -603 -1306 -1310 -1468 -290 -66 -606 -51
-895 42 -119 38 -347 154 -455 231 -122 87 -306 272 -393 393 -80 113 -185
319 -227 447 -142 431 -109 879 95 1288 256 512 744 853 1325 925 101 12 355
4 459 -14z"/>
<path d="M16870 9073 l0 -1088 615 -615 615 -615 -615 -615 -615 -615 0 -1072
0 -1073 1077 0 1078 0 612 612 613 613 613 -613 612 -612 1078 0 1077 0 0
1073 0 1072 -615 615 -615 615 615 615 615 615 0 1088 0 1087 -1062 0 -1063 0
-627 -627 -628 -628 -628 628 -627 627 -1063 0 -1062 0 0 -1087z"/>
</g>
</svg>
